<svg width="261" height="30" viewBox="0 0 261 30" fill="none" xmlns="http://www.w3.org/2000/svg">
<path d="M84.287 22.8141L90.1492 7.41413H93.7508L96.2713 16.5001L93.7374 16.4781L103.237 7.41413H106.721L100.859 22.8141H96.9515L98.727 18.1501C99.2406 16.8008 99.7326 15.5908 100.203 14.5201C100.695 13.4348 101.225 12.3715 101.794 11.3301L101.806 12.4741L94.7584 19.0521H93.1577L91.1959 12.5181L92.0954 11.3301C91.9096 12.3128 91.6472 13.3321 91.308 14.3881C90.99 15.4295 90.5519 16.6835 89.9936 18.1501L88.2182 22.8141H84.287Z" fill="white"/>
<path d="M112.379 23.0341C111.139 23.0341 110.069 22.8361 109.168 22.4401C108.283 22.0441 107.59 21.4941 107.089 20.7901C106.61 20.0715 106.342 19.2281 106.287 18.2601C106.237 17.2775 106.433 16.2068 106.874 15.0481C107.309 13.9041 107.923 12.8481 108.715 11.8801C109.513 10.8975 110.426 10.0468 111.452 9.32813C112.495 8.60947 113.61 8.05213 114.796 7.65613C115.998 7.26013 117.219 7.06213 118.459 7.06213C119.683 7.06213 120.738 7.26013 121.623 7.65613C122.508 8.05213 123.19 8.60947 123.67 9.32813C124.165 10.0468 124.438 10.8975 124.487 11.8801C124.543 12.8481 124.35 13.9115 123.909 15.0701C123.473 16.2141 122.859 17.2701 122.067 18.2381C121.275 19.2061 120.357 20.0495 119.315 20.7681C118.288 21.4868 117.181 22.0441 115.995 22.4401C114.808 22.8361 113.603 23.0341 112.379 23.0341ZM113.727 19.4921C114.371 19.4921 115.001 19.3821 115.618 19.1621C116.236 18.9421 116.816 18.6341 117.359 18.2381C117.918 17.8421 118.41 17.3728 118.837 16.8301C119.263 16.2875 119.596 15.7008 119.836 15.0701C120.082 14.4248 120.198 13.8308 120.185 13.2881C120.172 12.7455 120.037 12.2761 119.779 11.8801C119.543 11.4695 119.2 11.1541 118.751 10.9341C118.301 10.7141 117.754 10.6041 117.111 10.6041C116.467 10.6041 115.829 10.7141 115.196 10.9341C114.579 11.1541 113.988 11.4695 113.424 11.8801C112.88 12.2761 112.396 12.7455 111.969 13.2881C111.543 13.8308 111.207 14.4248 110.962 15.0701C110.638 15.9208 110.536 16.6835 110.656 17.3581C110.797 18.0181 111.124 18.5388 111.638 18.9201C112.168 19.3015 112.864 19.4921 113.727 19.4921Z" fill="white"/>
<path d="M126.876 22.8141L131.474 10.7361H126.625L127.889 7.41413H141.778L140.513 10.7361H135.499L130.902 22.8141H126.876Z" fill="white"/>
<path d="M145.436 23.0341C144.196 23.0341 143.126 22.8361 142.226 22.4401C141.34 22.0441 140.647 21.4941 140.147 20.7901C139.667 20.0715 139.399 19.2281 139.344 18.2601C139.294 17.2775 139.49 16.2068 139.931 15.0481C140.367 13.9041 140.981 12.8481 141.773 11.8801C142.57 10.8975 143.483 10.0468 144.51 9.32813C145.552 8.60947 146.667 8.05213 147.853 7.65613C149.055 7.26013 150.276 7.06213 151.516 7.06213C152.74 7.06213 153.795 7.26013 154.68 7.65613C155.565 8.05213 156.247 8.60947 156.727 9.32813C157.222 10.0468 157.495 10.8975 157.545 11.8801C157.6 12.8481 157.407 13.9115 156.966 15.0701C156.53 16.2141 155.916 17.2701 155.124 18.2381C154.332 19.2061 153.415 20.0495 152.372 20.7681C151.345 21.4868 150.239 22.0441 149.052 22.4401C147.866 22.8361 146.66 23.0341 145.436 23.0341ZM146.785 19.4921C147.428 19.4921 148.058 19.3821 148.676 19.1621C149.293 18.9421 149.873 18.6341 150.416 18.2381C150.975 17.8421 151.468 17.3728 151.894 16.8301C152.32 16.2875 152.653 15.7008 152.893 15.0701C153.139 14.4248 153.255 13.8308 153.242 13.2881C153.229 12.7455 153.094 12.2761 152.837 11.8801C152.601 11.4695 152.258 11.1541 151.808 10.9341C151.358 10.7141 150.811 10.6041 150.168 10.6041C149.524 10.6041 148.886 10.7141 148.253 10.9341C147.636 11.1541 147.045 11.4695 146.481 11.8801C145.938 12.2761 145.453 12.7455 145.027 13.2881C144.6 13.8308 144.264 14.4248 144.019 15.0701C143.695 15.9208 143.593 16.6835 143.713 17.3581C143.854 18.0181 144.181 18.5388 144.695 18.9201C145.225 19.3015 145.921 19.4921 146.785 19.4921Z" fill="white"/>
<path d="M157.068 22.8141L162.93 7.41413H170.392C171.46 7.41413 172.336 7.6268 173.021 8.05213C173.707 8.47747 174.151 9.06413 174.352 9.81213C174.575 10.5455 174.506 11.3888 174.143 12.3421C173.774 13.3101 173.194 14.1755 172.401 14.9381C171.624 15.7008 170.726 16.3095 169.705 16.7641C168.69 17.2041 167.649 17.4241 166.582 17.4241H162.957L160.905 22.8141H157.068ZM166.225 22.8141L164.69 15.8401L169.019 15.2901L170.807 22.8361L166.225 22.8141ZM164.071 14.4981H167.343C167.751 14.4981 168.135 14.4175 168.494 14.2561C168.875 14.0801 169.2 13.8455 169.468 13.5521C169.753 13.2588 169.967 12.9215 170.113 12.5401C170.263 12.1441 170.292 11.7995 170.2 11.5061C170.123 11.2128 169.935 10.9855 169.636 10.8241C169.358 10.6481 168.975 10.5601 168.489 10.5601H165.57L164.071 14.4981Z" fill="white"/>
<path d="M179.044 23.0341C177.412 23.0341 176.131 22.7701 175.202 22.2421C174.294 21.6995 173.628 20.9368 173.201 19.9541L176.629 17.3801C177.024 18.3628 177.55 19.0228 178.206 19.3601C178.862 19.6975 179.606 19.8661 180.438 19.8661C180.862 19.8661 181.258 19.8148 181.627 19.7121C182.011 19.6095 182.333 19.4628 182.594 19.2721C182.877 19.0668 183.071 18.8248 183.177 18.5461C183.26 18.3261 183.273 18.1281 183.215 17.9521C183.172 17.7761 183.073 17.6221 182.92 17.4901C182.766 17.3581 182.575 17.2408 182.347 17.1381C182.125 17.0208 181.863 16.9255 181.562 16.8521C181.276 16.7788 180.979 16.7128 180.672 16.6541C179.829 16.4781 179.123 16.2508 178.554 15.9721C178.007 15.6788 177.581 15.3341 177.276 14.9381C176.993 14.5275 176.84 14.0655 176.815 13.5521C176.797 13.0241 176.913 12.4301 177.164 11.7701C177.521 10.8315 178.116 10.0101 178.949 9.30613C179.798 8.60213 180.769 8.05213 181.861 7.65613C182.953 7.26013 184.049 7.06213 185.147 7.06213C186.748 7.06213 187.943 7.30413 188.731 7.78813C189.541 8.25747 190.078 8.91013 190.34 9.74613L186.982 12.0121C186.719 11.4255 186.329 10.9855 185.813 10.6921C185.313 10.3988 184.725 10.2521 184.051 10.2521C183.595 10.2521 183.176 10.3035 182.791 10.4061C182.407 10.5088 182.082 10.6628 181.815 10.8681C181.57 11.0588 181.394 11.2935 181.288 11.5721C181.199 11.8068 181.189 12.0195 181.257 12.2101C181.347 12.3861 181.5 12.5401 181.717 12.6721C181.934 12.8041 182.195 12.9215 182.501 13.0241C182.813 13.1121 183.146 13.1855 183.5 13.2441C184.302 13.4055 184.998 13.6181 185.588 13.8821C186.193 14.1461 186.672 14.4761 187.023 14.8721C187.381 15.2535 187.592 15.7081 187.658 16.2361C187.745 16.7495 187.66 17.3435 187.403 18.0181C187.001 19.0741 186.383 19.9761 185.549 20.7241C184.715 21.4721 183.736 22.0441 182.613 22.4401C181.489 22.8361 180.299 23.0341 179.044 23.0341Z" fill="white"/>
<path d="M188.585 22.8141L194.447 7.41413H201.58C202.616 7.41413 203.458 7.63413 204.106 8.07413C204.755 8.51413 205.169 9.11547 205.35 9.87813C205.536 10.6261 205.445 11.4841 205.076 12.4521C204.702 13.4348 204.129 14.3221 203.357 15.1141C202.585 15.9061 201.704 16.5295 200.715 16.9841C199.726 17.4388 198.713 17.6661 197.677 17.6661H194.57L192.61 22.8141H188.585ZM195.788 14.3441H198.4C198.746 14.3441 199.08 14.2708 199.402 14.1241C199.746 13.9628 200.057 13.7428 200.336 13.4641C200.615 13.1855 200.821 12.8701 200.955 12.5181C201.095 12.1515 201.129 11.8361 201.056 11.5721C200.984 11.3081 200.835 11.1028 200.608 10.9561C200.397 10.8095 200.119 10.7361 199.774 10.7361H197.161L195.788 14.3441Z" fill="white"/>
<path d="M211.597 23.0341C210.357 23.0341 209.287 22.8361 208.386 22.4401C207.501 22.0441 206.808 21.4941 206.307 20.7901C205.827 20.0715 205.56 19.2281 205.504 18.2601C205.455 17.2775 205.651 16.2068 206.092 15.0481C206.527 13.9041 207.141 12.8481 207.933 11.8801C208.731 10.8975 209.643 10.0468 210.67 9.32813C211.713 8.60947 212.827 8.05213 214.014 7.65613C215.216 7.26013 216.437 7.06213 217.677 7.06213C218.901 7.06213 219.955 7.26013 220.84 7.65613C221.725 8.05213 222.408 8.60947 222.887 9.32813C223.383 10.0468 223.655 10.8975 223.705 11.8801C223.76 12.8481 223.567 13.9115 223.126 15.0701C222.691 16.2141 222.077 17.2701 221.285 18.2381C220.492 19.2061 219.575 20.0495 218.533 20.7681C217.506 21.4868 216.399 22.0441 215.213 22.4401C214.026 22.8361 212.821 23.0341 211.597 23.0341ZM212.945 19.4921C213.588 19.4921 214.219 19.3821 214.836 19.1621C215.453 18.9421 216.034 18.6341 216.577 18.2381C217.135 17.8421 217.628 17.3728 218.054 16.8301C218.481 16.2875 218.814 15.7008 219.054 15.0701C219.299 14.4248 219.416 13.8308 219.403 13.2881C219.389 12.7455 219.254 12.2761 218.997 11.8801C218.761 11.4695 218.418 11.1541 217.968 10.9341C217.518 10.7141 216.972 10.6041 216.328 10.6041C215.685 10.6041 215.047 10.7141 214.414 10.9341C213.796 11.1541 213.205 11.4695 212.641 11.8801C212.098 12.2761 211.613 12.7455 211.187 13.2881C210.761 13.8308 210.425 14.4248 210.179 15.0701C209.855 15.9208 209.753 16.6835 209.873 17.3581C210.014 18.0181 210.342 18.5388 210.856 18.9201C211.385 19.3015 212.082 19.4921 212.945 19.4921Z" fill="white"/>
<path d="M223.228 22.8141L229.091 7.41413H236.553C237.62 7.41413 238.496 7.6268 239.182 8.05213C239.867 8.47747 240.311 9.06413 240.513 9.81213C240.736 10.5455 240.666 11.3888 240.303 12.3421C239.935 13.3101 239.354 14.1755 238.562 14.9381C237.785 15.7008 236.886 16.3095 235.866 16.7641C234.851 17.2041 233.81 17.4241 232.742 17.4241H229.117L227.065 22.8141H223.228ZM232.386 22.8141L230.85 15.8401L235.179 15.2901L236.967 22.8361L232.386 22.8141ZM230.231 14.4981H233.503C233.911 14.4981 234.295 14.4175 234.655 14.2561C235.035 14.0801 235.36 13.8455 235.629 13.5521C235.913 13.2588 236.128 12.9215 236.273 12.5401C236.424 12.1441 236.453 11.7995 236.361 11.5061C236.284 11.2128 236.096 10.9855 235.796 10.8241C235.518 10.6481 235.136 10.5601 234.649 10.5601H231.73L230.231 14.4981Z" fill="white"/>
<path d="M242.921 22.8141L247.519 10.7361H242.67L243.934 7.41413H257.823L256.558 10.7361H251.544L246.947 22.8141H242.921Z" fill="white"/>
<path fill-rule="evenodd" clip-rule="evenodd" d="M4.51353e-05 29.9999L11.4199 0H16.2824L23.9837 15.9202L43.8056 0H48.668L44.6384 10.5857H39.8677C40.3877 9.40211 40.9523 8.20473 41.5616 6.99356L23.417 21.3857H20.3895L13.202 6.99355C12.8891 8.20473 12.5422 9.40211 12.161 10.5857C11.4894 12.6714 10.7022 14.9 9.79952 17.2714L4.95423 29.9999H4.51353e-05ZM41.3991 20.5074L40.9747 19.7517C40.7552 19.8697 40.5315 19.9767 40.3034 20.0728C39.7991 20.282 39.2973 20.439 38.7981 20.5436C38.2989 20.6483 37.8369 20.7006 37.4122 20.7006C36.4761 20.7006 35.7522 20.5758 35.2405 20.3263C34.7318 20.0687 34.4067 19.7387 34.2652 19.3362C34.1268 18.9257 34.1434 18.4951 34.315 18.0443C34.5295 17.4809 34.9336 16.9657 35.5273 16.4989C36.0657 16.0766 36.7499 15.7212 37.58 15.4326C37.4657 15.2335 37.3801 15.0296 37.3233 14.8206C37.2541 14.5469 37.2716 14.2732 37.3758 13.9995C37.4984 13.6776 37.7423 13.3556 38.1075 13.0336C38.4815 12.7117 38.9481 12.442 39.5076 12.2247C40.0701 11.9993 40.685 11.8866 41.3524 11.8866C41.9678 11.8866 42.4789 11.9671 42.8856 12.1281C43.3041 12.281 43.6334 12.4863 43.8733 12.7439C44.122 13.0014 44.289 13.2912 44.3745 13.6132L43.1037 14.4584C42.9582 13.9754 42.6739 13.6293 42.2508 13.42C41.8395 13.2027 41.4042 13.094 40.9448 13.094C40.6848 13.094 40.427 13.1222 40.1716 13.1785C39.9278 13.2268 39.7093 13.3113 39.516 13.4321C39.3227 13.5528 39.1893 13.7098 39.1157 13.903C39.0667 14.0317 39.0552 14.1646 39.0811 14.3014C39.1157 14.4382 39.1691 14.571 39.2414 14.6998C39.3224 14.8286 39.4136 14.9534 39.515 15.0741C39.6164 15.1949 39.7106 15.3116 39.7977 15.4243L41.7085 17.8258C42.0411 17.4694 42.3033 17.0392 42.4952 16.5351H43.9513C43.7307 17.1146 43.4306 17.6298 43.051 18.0805C42.8274 18.3523 42.5853 18.602 42.3249 18.8299L43.2842 20.5074H41.3991ZM38.7476 16.8852L40.3184 18.8309C39.9346 19.0086 39.5472 19.1408 39.156 19.2276C38.7323 19.3161 38.3514 19.3604 38.0134 19.3604C37.398 19.3604 36.9315 19.2879 36.614 19.1431C36.2995 18.9901 36.1043 18.7969 36.0285 18.5635C35.9644 18.322 35.9814 18.0725 36.0795 17.8149C36.2112 17.4688 36.4564 17.1549 36.815 16.8732C37.1326 16.6187 37.595 16.4139 38.2022 16.2588L38.2317 16.2936C38.435 16.5109 38.607 16.7081 38.7476 16.8852ZM41.6039 25.5428L41.6002 25.5526H38.9411L40.2493 22.1159H35.4473L32.4461 29.9999H36.4262L36.4262 30H41.0119L41.012 29.9999H53.6625C55.1603 29.9999 56.707 29.8714 58.3027 29.6142C59.9092 29.3285 61.4489 28.8571 62.9217 28.1999C64.4252 27.5428 65.7612 26.6428 66.9298 25.4999C68.1291 24.3571 69.0604 22.9142 69.7238 21.1714C70.322 19.6 70.4402 18.2857 70.0785 17.2285C69.7276 16.1428 69.0604 15.2857 68.077 14.6571C67.4202 14.2373 66.7001 13.8939 65.9169 13.627C67.4702 13.1437 68.8154 12.487 69.9526 11.6571C71.5295 10.4857 72.6171 9.11427 73.2152 7.54284C73.8352 5.91427 73.8987 4.54285 73.4059 3.42857C72.913 2.31428 71.8736 1.47143 70.2877 0.899999C68.7126 0.3 66.5801 0 63.8902 0H51.3271L49.6304 4.45713H62.5603C64.4555 4.45713 65.9362 4.74285 67.0026 5.31427C68.0994 5.8857 68.3868 6.85713 67.8648 8.22855C67.5602 9.02855 67.0034 9.72855 66.1942 10.3285C65.4156 10.9285 64.4927 11.3857 63.4255 11.7C62.3583 12.0143 61.2744 12.1714 60.174 12.1714H46.6939L44.9809 16.6714H58.6903C59.8518 16.6714 60.9743 16.8142 62.0577 17.1C63.1519 17.3571 63.9768 17.8 64.5322 18.4285C65.0877 19.0571 65.1479 19.9428 64.7129 21.0857C64.3322 22.0857 63.6904 22.9285 62.7875 23.6142C61.8954 24.2714 60.8241 24.7571 59.5735 25.0714C58.3534 25.3857 57.0098 25.5428 55.5425 25.5428H41.6039Z" fill="white"/>
</svg>
